<?xml version="1.0" encoding="utf-8"?>

<!DOCTYPE svg PUBLIC "-//W3C//DTD SVG 1.1//EN" "http://www.w3.org/Graphics/SVG/1.1/DTD/svg11.dtd">
<svg version="1.1" id="Layer_1" xmlns="http://www.w3.org/2000/svg" xmlns:xlink="http://www.w3.org/1999/xlink" x="0px" y="0px"
	 width="60px" height="60px" viewBox="0 0 60 60" enable-background="new 0 0 60 60" xml:space="preserve">
<path fill="#CCCCCC" d="M48.35,50.783l0.254,0.305c-4.997,4.488-11.608,7.222-18.842,7.222s-13.833-2.721-18.83-7.196l0.28-0.331
	c0,0,3.293-2.619,7.171-3.585c3.878-0.966,5.632-3.687,5.632-3.687v-4.755c0,0-2.823-3.776-2.428-6.395c0,0-3.496-2.327-1.068-5.721
	c0,0-5.62-16.134,8.633-16.299c3.611-0.038,5.403,2.708,5.403,2.708c9.65-0.966,4.488,13.591,4.488,13.591
	c2.428,3.395-1.068,5.721-1.068,5.721c0.394,2.619-2.428,6.395-2.428,6.395v4.755c0,0,1.755,2.721,5.632,3.687
	C45.057,48.164,48.35,50.783,48.35,50.783z"/>
<path fill="none" stroke="#555555" stroke-width="3" stroke-linecap="round" stroke-linejoin="round" stroke-miterlimit="10" d="
	M48.35,50.783c0,0-3.293-2.619-7.171-3.585c-3.878-0.966-5.632-3.687-5.632-3.687v-4.755c0,0,2.823-3.776,2.428-6.395
	c0,0,3.496-2.327,1.068-5.721c0,0,5.162-14.558-4.488-13.591c0,0-1.793-2.746-5.403-2.708c-14.253,0.165-8.633,16.299-8.633,16.299
	c-2.428,3.395,1.068,5.721,1.068,5.721c-0.394,2.619,2.428,6.395,2.428,6.395v4.755c0,0-1.755,2.721-5.632,3.687
	c-3.878,0.966-7.171,3.585-7.171,3.585"/>
<path fill="none" stroke="#555555" stroke-width="3" stroke-miterlimit="10" d="M10.932,51.113
	C5.16,45.939,1.524,38.425,1.524,30.071c0-15.6,12.638-28.238,28.238-28.238C45.349,1.833,58,14.471,58,30.071
	c0,8.353-3.624,15.854-9.396,21.016c-4.997,4.488-11.608,7.222-18.842,7.222S15.929,55.589,10.932,51.113z"/>
</svg>
